<?xml version="1.0" encoding="UTF-8"?>
<!DOCTYPE svg PUBLIC "-//W3C//DTD SVG 1.1//EN" "http://www.w3.org/Graphics/SVG/1.1/DTD/svg11.dtd">
<svg xmlns="http://www.w3.org/2000/svg" version="1.1" width="818px" height="901px" style="shape-rendering:geometricPrecision; text-rendering:geometricPrecision; image-rendering:optimizeQuality; fill-rule:evenodd; clip-rule:evenodd" xmlns:xlink="http://www.w3.org/1999/xlink">
<g><path style="opacity:1" fill="#23558a" d="M 143.5,-0.5 C 151.5,-0.5 159.5,-0.5 167.5,-0.5C 175.5,0.833333 183.5,0.833333 191.5,-0.5C 199.5,-0.5 207.5,-0.5 215.5,-0.5C 223.5,0.833333 231.5,0.833333 239.5,-0.5C 240.5,-0.5 241.5,-0.5 242.5,-0.5C 245.167,0.833333 247.833,0.833333 250.5,-0.5C 254.833,-0.5 259.167,-0.5 263.5,-0.5C 271.5,0.833333 279.5,0.833333 287.5,-0.5C 295.5,-0.5 303.5,-0.5 311.5,-0.5C 319.5,0.833333 327.5,0.833333 335.5,-0.5C 343.5,-0.5 351.5,-0.5 359.5,-0.5C 367.5,0.833333 375.5,0.833333 383.5,-0.5C 391.5,-0.5 399.5,-0.5 407.5,-0.5C 415.5,0.833333 423.5,0.833333 431.5,-0.5C 439.5,-0.5 447.5,-0.5 455.5,-0.5C 463.5,0.833333 471.5,0.833333 479.5,-0.5C 487.5,-0.5 495.5,-0.5 503.5,-0.5C 511.5,0.833333 519.5,0.833333 527.5,-0.5C 535.5,-0.5 543.5,-0.5 551.5,-0.5C 559.5,0.833333 567.5,0.833333 575.5,-0.5C 583.5,-0.5 591.5,-0.5 599.5,-0.5C 607.5,0.833333 615.5,0.833333 623.5,-0.5C 631.5,-0.5 639.5,-0.5 647.5,-0.5C 655.5,0.833333 663.5,0.833333 671.5,-0.5C 678.167,-0.5 684.833,-0.5 691.5,-0.5C 694.175,0.355367 696.842,1.52203 699.5,3C 737.667,41.1667 775.833,79.3333 814,117.5C 815.604,120.459 816.771,123.459 817.5,126.5C 817.5,355.833 817.5,585.167 817.5,814.5C 816.451,820.401 813.118,824.568 807.5,827C 766.835,827.5 726.168,827.667 685.5,827.5C 685.667,848.503 685.5,869.503 685,890.5C 682.919,895.416 679.419,898.75 674.5,900.5C 452.833,900.5 231.167,900.5 9.5,900.5C 7.53684,899.18 5.53684,897.846 3.5,896.5C 3.57298,894.973 2.90632,893.973 1.5,893.5C 0.833333,892.833 0.166667,892.167 -0.5,891.5C -0.5,621.833 -0.5,352.167 -0.5,82.5C 1.31481,78.5212 4.31481,75.6878 8.5,74C 49.1653,73.5 89.832,73.3333 130.5,73.5C 130.333,52.4974 130.5,31.4974 131,10.5C 133.513,4.81269 137.68,1.14602 143.5,-0.5 Z M 172.5,43.5 C 340.167,43.3333 507.834,43.5 675.5,44C 708.333,76.8333 741.167,109.667 774,142.5C 774.5,356.5 774.667,570.5 774.5,784.5C 573.833,784.5 373.167,784.5 172.5,784.5C 172.5,537.5 172.5,290.5 172.5,43.5 Z M 45.5,117.5 C 73.8333,117.5 102.167,117.5 130.5,117.5C 130.333,350.834 130.5,584.167 131,817.5C 132.833,822 136,825.167 140.5,827C 306.5,827.5 472.5,827.667 638.5,827.5C 638.5,836.5 638.5,845.5 638.5,854.5C 440.833,854.5 243.167,854.5 45.5,854.5C 45.5,608.833 45.5,363.167 45.5,117.5 Z"/></g>
<g><path style="opacity:1" fill="#dcdddc" d="M 763.5,64.5 C 764.833,65.1667 764.833,65.1667 763.5,64.5 Z"/></g>
<g><path style="opacity:1" fill="#dbdcdb" d="M 765.5,65.5 C 766.833,66.1667 766.833,66.1667 765.5,65.5 Z"/></g>
<g><path style="opacity:1" fill="#20558a" d="M 329.5,155.5 C 426.501,155.333 523.501,155.5 620.5,156C 643.264,155.862 665.93,157.195 688.5,160C 690.762,160.642 692.929,161.475 695,162.5C 696.619,173.068 696.952,183.735 696,194.5C 693.424,197.142 690.257,198.642 686.5,199C 674.895,200.7 663.228,201.7 651.5,202C 534.167,202.667 416.833,202.667 299.5,202C 286.713,201.721 274.047,200.388 261.5,198C 259.919,197.293 258.419,196.46 257,195.5C 255.41,185.574 255.077,175.574 256,165.5C 256.465,164.069 257.299,162.903 258.5,162C 264.974,159.809 271.64,158.476 278.5,158C 295.655,157.085 312.655,156.252 329.5,155.5 Z"/></g>
<g><path style="opacity:1" fill="#205589" d="M 331.5,247.5 C 428.834,247.333 526.167,247.5 623.5,248C 646.264,247.862 668.93,249.195 691.5,252C 693.762,252.642 695.929,253.475 698,254.5C 699.619,265.068 699.952,275.735 699,286.5C 696.424,289.142 693.257,290.642 689.5,291C 677.895,292.7 666.228,293.7 654.5,294C 536.833,294.667 419.167,294.667 301.5,294C 288.713,293.721 276.047,292.388 263.5,290C 261.919,289.293 260.419,288.46 259,287.5C 257.215,283.148 256.048,278.648 255.5,274C 256.769,268.581 257.603,263.081 258,257.5C 258.465,256.069 259.299,254.903 260.5,254C 266.974,251.809 273.64,250.476 280.5,250C 297.655,249.085 314.655,248.252 331.5,247.5 Z"/></g>
<g><path style="opacity:1" fill="#205589" d="M 329.5,341.5 C 426.834,341.333 524.167,341.5 621.5,342C 644.264,341.862 666.93,343.195 689.5,346C 691.762,346.642 693.929,347.475 696,348.5C 697.619,359.068 697.952,369.735 697,380.5C 694.424,383.142 691.257,384.642 687.5,385C 675.895,386.7 664.228,387.7 652.5,388C 534.833,388.667 417.167,388.667 299.5,388C 286.713,387.721 274.047,386.388 261.5,384C 259.919,383.293 258.419,382.46 257,381.5C 255.41,371.574 255.077,361.574 256,351.5C 256.465,350.069 257.299,348.903 258.5,348C 264.974,345.809 271.64,344.476 278.5,344C 295.655,343.085 312.655,342.252 329.5,341.5 Z"/></g>
<g><path style="opacity:1" fill="#205589" d="M 329.5,437.5 C 426.834,437.333 524.167,437.5 621.5,438C 644.264,437.862 666.93,439.195 689.5,442C 691.762,442.642 693.929,443.475 696,444.5C 697.619,455.068 697.952,465.735 697,476.5C 694.424,479.142 691.257,480.642 687.5,481C 675.895,482.7 664.228,483.7 652.5,484C 534.833,484.667 417.167,484.667 299.5,484C 286.713,483.721 274.047,482.388 261.5,480C 259.919,479.293 258.419,478.46 257,477.5C 255.41,467.574 255.077,457.574 256,447.5C 256.465,446.069 257.299,444.903 258.5,444C 264.974,441.809 271.64,440.476 278.5,440C 295.655,439.085 312.655,438.252 329.5,437.5 Z"/></g>
<g><path style="opacity:1" fill="#205589" d="M 330.5,531.5 C 427.834,531.333 525.167,531.5 622.5,532C 645.264,531.862 667.93,533.195 690.5,536C 692.762,536.642 694.929,537.475 697,538.5C 698.619,549.068 698.952,559.735 698,570.5C 695.424,573.142 692.257,574.642 688.5,575C 676.895,576.7 665.228,577.7 653.5,578C 535.833,578.667 418.167,578.667 300.5,578C 287.713,577.721 275.047,576.388 262.5,574C 260.919,573.293 259.419,572.46 258,571.5C 255.407,561.575 255.074,551.575 257,541.5C 257.465,540.069 258.299,538.903 259.5,538C 265.974,535.809 272.64,534.476 279.5,534C 296.655,533.085 313.655,532.252 330.5,531.5 Z"/></g>
<g><path style="opacity:1" fill="#205589" d="M 330.5,625.5 C 427.834,625.333 525.167,625.5 622.5,626C 645.264,625.862 667.93,627.195 690.5,630C 692.762,630.642 694.929,631.475 697,632.5C 698.619,643.068 698.952,653.735 698,664.5C 695.424,667.142 692.257,668.642 688.5,669C 676.895,670.7 665.228,671.7 653.5,672C 535.833,672.667 418.167,672.667 300.5,672C 287.713,671.721 275.047,670.388 262.5,668C 260.919,667.293 259.419,666.46 258,665.5C 255.526,655.567 255.192,645.567 257,635.5C 257.465,634.069 258.299,632.903 259.5,632C 265.974,629.809 272.64,628.476 279.5,628C 296.655,627.085 313.655,626.252 330.5,625.5 Z"/></g>
<g><path style="opacity:1" fill="#b8b8b8" d="M 1.5,893.5 C 2.90632,893.973 3.57298,894.973 3.5,896.5C 2.09368,896.027 1.42702,895.027 1.5,893.5 Z"/></g>
</svg>
