<?xml version="1.0" encoding="utf-8"?>
<!-- Generator: Adobe Illustrator 25.4.1, SVG Export Plug-In . SVG Version: 6.00 Build 0)  -->
<svg version="1.1" id="Calque_1" xmlns="http://www.w3.org/2000/svg" xmlns:xlink="http://www.w3.org/1999/xlink" x="0px" y="0px"
	 viewBox="0 0 556 512" style="enable-background:new 0 0 556 512;" xml:space="preserve">
<style type="text/css">
	.st0{fill:#20558A;}
</style>
<path class="st0" d="M218.2,424.1c-2.9-5.9-8.1-6.5-10.2-6.5s-7.2,0.6-10,6.2l-7.7,15.3c-6.4,12.8-25,11.4-29.5-2.1L144,386.6
	l-10.6,31.9c-5.9,17.7-22.4,29.5-41,29.5H80c-8.8,0-16-7.2-16-16s7.2-16,16-16h12.4c4.8,0,9.1-3.1,10.6-7.7l18.2-54.6
	c3.3-9.8,12.4-16.4,22.8-16.4s19.5,6.6,22.8,16.4l13.9,41.6c19.8-16.2,54.1-9.7,66,14.2c1.9,3.8,5.5,6,9.4,6.3v-82.1l128-127.1V160
	H248c-13.2,0-24-10.8-24-24V0H24C10.7,0,0,10.7,0,24v464c0,13.3,10.7,24,24,24h336c13.3,0,24-10.7,24-24v-40l-128-0.1
	C239.9,447.6,225.4,438.6,218.2,424.1z M384,121.9c0-6.3-2.5-12.4-7-16.9L279.1,7c-4.5-4.5-10.6-7-17-7H256v128h128V121.9z M288,347
	v69h69l141.7-142.8l-67.9-67.9L288,347z M548.5,187.3l-31.9-31.9c-9.9-9.9-26.1-9.9-36,0l-27.2,27.2l67.9,67.9l27.2-27.2
	C558.5,213.4,558.5,197.3,548.5,187.3L548.5,187.3z"/>
</svg>
