<?xml version="1.0" encoding="utf-8"?>
<!-- Generator: Adobe Illustrator 25.4.1, SVG Export Plug-In . SVG Version: 6.00 Build 0)  -->
<svg version="1.1" id="Calque_1" xmlns="http://www.w3.org/2000/svg" xmlns:xlink="http://www.w3.org/1999/xlink" x="0px" y="0px"
	 viewBox="0 0 448 512" style="enable-background:new 0 0 448 512;" xml:space="preserve">
<style type="text/css">
	.st0{fill:#20558A;}
</style>
<path class="st0" d="M406.5,118.8l-74.3-74.3c-8-8-18.8-12.5-30-12.5H64.5C41.1,32.1,22,51.1,22,74.6v311.9
	c0,23.5,19.1,42.5,42.5,42.5h311.9c23.5,0,42.5-19.1,42.5-42.5V149C419,137.7,414.5,126.8,406.5,118.8L406.5,118.8z M220.5,372.4
	c-31.3,0-56.7-25.4-56.7-56.7s25.4-56.7,56.7-56.7s56.7,25.4,56.7,56.7S251.8,372.4,220.5,372.4z M305.6,102.5v89.1
	c0,5.8-4.8,10.6-10.6,10.6H89.3c-5.8,0-10.6-4.8-10.6-10.6V99.4c0-5.8,4.8-10.6,10.6-10.6h202.5c2.8,0,5.5,1.2,7.5,3.1l3.1,3.1
	C304.4,97,305.6,99.7,305.6,102.5z"/>
</svg>
